<svg xmlns="http://www.w3.org/2000/svg" fill="none" viewBox="0 0 48 48" id="Graduation-Cap--Streamline-Plump" height="48" width="48">
  <desc>
    Graduation Cap Streamline Icon: https://streamlinehq.com
  </desc>
  <g id="Solid/Work Education/School/graduation-cap--graduation-cap-education">
    <path id="Union" fill="#5998D6" fill-rule="evenodd" d="M26.1872 3.99938c-1.4169 -0.48355 -2.9419 -0.48355 -4.3588 0 -1.9828 0.67671 -5.6487 2.00254 -10.9975 4.23121 -3.85028 1.60428 -6.58125 2.84661 -8.41958 3.72731 -1.19928 0.5745 -1.887928 1.705 -1.887928 2.9073 0 1.2023 0.688648 2.3328 1.887928 2.9073 0.33533 0.1606 0.70035 0.3333 1.09645 0.518l0 17.3308C1.75998 36.239 0.507767 37.9059 0.507767 39.8652c0 2.4853 2.014723 4.5 4.500003 4.5 2.48528 0 4.5 -2.0147 4.5 -4.5 0 -1.9593 -1.25222 -3.6262 -3 -4.2439l0 -15.9722c1.25016 0.5514 2.68539 1.1683 4.32313 1.8507 5.3488 2.2287 9.0147 3.5545 10.9975 4.2312 1.4169 0.4836 2.942 0.4836 4.3588 0 1.9829 -0.6767 5.6487 -2.0025 10.9975 -4.2312 3.8503 -1.6043 6.5813 -2.8466 8.4196 -3.7273 1.1993 -0.5745 1.8879 -1.705 1.8879 -2.9073 0 -1.2023 -0.6886 -2.3328 -1.8879 -2.9073 -1.8383 -0.8807 -4.5693 -2.12302 -8.4196 -3.7273 -5.3488 -2.22868 -9.0146 -3.55451 -10.9975 -4.23122ZM9.50854 23.657l0.36082 0.1506c5.39824 2.2493 9.11544 3.5947 11.15164 4.2896 1.9403 0.6622 4.0333 0.6622 5.9737 0 2.0361 -0.6949 5.7533 -2.0403 11.1516 -4.2896l0.3607 -0.1506c0.0005 0.1236 0.0008 0.2486 0.0008 0.375 0 3.1423 -0.161 5.1542 -0.3288 6.4007 -0.1987 1.4758 -1.059 2.7724 -2.4175 3.4834 -1.9663 1.0291 -5.7708 2.4492 -11.7537 2.4492s-9.7875 -1.4201 -11.7537 -2.4492c-1.3586 -0.711 -2.2189 -2.0076 -2.41755 -3.4834 -0.1678 -1.2465 -0.32878 -3.2584 -0.32878 -6.4007 0 -0.1264 0.00026 -0.2514 0.00077 -0.375Z" clip-rule="evenodd" stroke-width="1"></path>
  </g>
</svg>