<svg width="186" height="179" viewBox="0 0 186 179" fill="none" xmlns="http://www.w3.org/2000/svg">
<path d="M177.221 53.9463L59.9257 4.19502C55.5072 2.32091 50.3896 4.39101 48.5158 8.80881L3.94163 113.898C2.0678 118.316 4.1366 123.434 8.55507 125.308L125.851 175.06C130.268 176.933 135.385 174.863 137.259 170.446L181.833 65.3559C183.708 60.9389 181.638 55.8198 177.221 53.9463ZM147.359 57.1541C148.052 55.5204 149.938 54.7574 151.571 55.4502L154.53 56.7051C156.164 57.3983 156.926 59.284 156.233 60.9181L154.811 64.2708C154.118 65.9046 152.232 66.6672 150.598 65.9744L147.64 64.7196C146.006 64.0268 145.244 62.1406 145.937 60.5069L147.359 57.1541ZM133.603 51.3194C134.296 49.6857 136.183 48.923 137.816 49.6158L140.774 50.8703C142.407 51.5631 143.17 53.4496 142.477 55.0836L141.055 58.4364C140.362 60.0701 138.475 60.8325 136.842 60.1397L133.884 58.8851C132.251 58.1923 131.488 56.3059 132.181 54.6722L133.603 51.3194ZM128.325 164.765L14.2355 116.373L49.3756 33.5258L163.465 81.9173L128.325 164.765ZM168.567 70.1056C167.874 71.7393 165.988 72.5019 164.354 71.8091L161.396 70.5543C159.761 69.8609 159 67.9752 159.693 66.3415L161.115 62.9887C161.808 61.355 163.694 60.592 165.328 61.2849L168.286 62.5398C169.92 63.2327 170.682 65.1187 169.989 66.7528L168.567 70.1056Z" fill="white"/>
<path d="M49.4825 86.1332L66.6972 105.201C67.1428 105.693 67.6777 106.074 68.2878 106.332C69.0826 106.67 69.9531 106.772 70.8082 106.63C72.3408 106.371 73.6181 105.363 74.2242 103.934L74.2707 103.824C74.9558 102.209 74.6383 100.324 73.4615 99.0218L62.6926 87.1013L78.7482 86.5577C80.5026 86.4981 82.0784 85.4165 82.7633 83.8018L82.8093 83.6934C83.4163 82.2622 83.2533 80.6429 82.3732 79.3635C81.8873 78.6548 81.2061 78.1 80.4042 77.7599C79.7995 77.5034 79.1366 77.3791 78.4868 77.401L52.8143 78.2772C51.0612 78.3374 49.4858 79.42 48.8012 81.034L48.6748 81.3321C47.9909 82.9436 48.3071 84.8277 49.4825 86.1332Z" fill="white"/>
<path d="M68.4257 118.134C68.7538 119.536 69.7407 120.709 71.0658 121.271L71.1732 121.317C72.9925 122.089 75.0805 121.6 76.3689 120.105L109.06 82.3258C110.001 81.2344 110.368 79.7447 110.04 78.3403C109.712 76.9377 108.725 75.765 107.4 75.2029L107.293 75.1574C105.473 74.3855 103.383 74.8729 102.095 76.3684L69.4007 114.15C68.4621 115.244 68.0979 116.733 68.4257 118.134Z" fill="white"/>
<path d="M104.11 92.8582C103.426 94.4712 103.742 96.356 104.918 97.6623L115.687 109.582L99.6322 110.124C97.8781 110.184 96.3022 111.266 95.6173 112.88L95.5708 112.99C94.9646 114.419 95.1272 116.038 96.0073 117.321C96.497 118.033 97.176 118.588 97.9718 118.926C98.5813 119.184 99.2263 119.304 99.8939 119.283L125.567 118.406C127.32 118.344 128.896 117.262 129.579 115.65L129.706 115.352C130.39 113.738 130.074 111.853 128.897 110.55L111.684 91.4834C111.249 91.0025 110.7 90.6126 110.095 90.3561C109.295 90.0165 108.422 89.9113 107.575 90.0539C106.041 90.3111 104.764 91.3191 104.157 92.7502L104.111 92.8583L104.11 92.8579L104.11 92.8582Z" fill="white"/>
</svg>
